<mxfile host="65bd71144e">
    <diagram id="z3ALc2IC1xmgvpSEwhlV" name="Page-1">
        <mxGraphModel dx="606" dy="310" grid="1" gridSize="10" guides="1" tooltips="1" connect="1" arrows="1" fold="1" page="1" pageScale="1" pageWidth="827" pageHeight="1169" math="0" shadow="0">
            <root>
                <mxCell id="0"/>
                <mxCell id="1" parent="0"/>
                <mxCell id="7" value="TURN NO. 10 WHAT IS YOUR GUESS?&amp;nbsp; 0,0&lt;br&gt;&lt;div&gt;&lt;/div&gt;&lt;div&gt;YOU ARE 5.8 UNITS FROM MUGWUMP&amp;nbsp; 1&lt;/div&gt;&lt;div&gt;YOU ARE 11.4 UNITS FROM MUGWUMP&amp;nbsp; 2&lt;/div&gt;&lt;div&gt;YOU ARE 7 UNITS FROM MUGWUMP&amp;nbsp; 3&lt;/div&gt;&lt;div&gt;YOU ARE 11.4 UNITS FROM MUGWUMP&amp;nbsp; 4&lt;/div&gt;&lt;div&gt;&lt;br&gt;&lt;/div&gt;&lt;div&gt;SORRY, THAT'S 10 TRIES. HERE IS WHERE THEY'RE HIDING&lt;/div&gt;&lt;div&gt;MUGWUMP 1 IS AT ( 3, 5)&lt;/div&gt;&lt;div&gt;MUGWUMP 2 IS AT ( 9, 7)&lt;/div&gt;&lt;div&gt;MUGWUMP 3 IS AT ( 5, 5)&lt;/div&gt;&lt;div&gt;MUGWUMP 4 IS AT ( 7, 9)&lt;/div&gt;&lt;br&gt;&lt;div&gt;THAT WAS FUN! LET'S PLAY AGAIN....&lt;/div&gt;&lt;div&gt;FOUR MORE MUGWUMPS ARE NOW IN HIDING.&lt;/div&gt;&lt;div&gt;&lt;br&gt;&lt;/div&gt;TURN NO. 1 WHAT IS YOUR GUESS?&amp;nbsp;" style="rounded=0;whiteSpace=wrap;html=1;align=left;" vertex="1" parent="1">
                    <mxGeometry x="440" y="490" width="480" height="240" as="geometry"/>
                </mxCell>
            </root>
        </mxGraphModel>
    </diagram>
</mxfile>